<?xml version="1.0" standalone="no"?>
<!DOCTYPE svg PUBLIC "-//W3C//DTD SVG 20010904//EN"
 "http://www.w3.org/TR/2001/REC-SVG-20010904/DTD/svg10.dtd">
<svg version="1.0" xmlns="http://www.w3.org/2000/svg"
 width="300.000000pt" height="300.000000pt" viewBox="0 0 300.000000 300.000000"
 preserveAspectRatio="xMidYMid meet">
<metadata>
Created by potrace 1.10, written by Peter Selinger 2001-2011
</metadata>
<g transform="translate(0.000000,300.000000) scale(0.100000,-0.100000)"
fill="#000000" stroke="none">
<path d="M1207 2421 c5 -21 28 -18 37 5 4 10 -2 14 -18 14 -19 0 -23 -4 -19
-19z"/>
<path d="M1265 2430 c-3 -5 -3 -10 1 -10 4 0 -1 -9 -11 -20 -10 -11 -23 -20
-29 -20 -6 0 -23 -15 -38 -34 l-28 -35 25 -29 c29 -35 33 -69 8 -69 -10 0 -23
4 -30 9 -7 6 -14 5 -18 -2 -4 -6 1 -17 10 -24 17 -12 16 -13 -6 -19 -15 -4
-30 0 -42 10 -15 15 -20 15 -27 3 -7 -11 -13 -9 -30 11 -12 13 -19 18 -15 11
4 -7 1 -19 -5 -27 -10 -12 -8 -15 11 -17 13 0 30 -1 37 -1 6 1 12 -4 12 -9 0
-20 173 18 177 40 2 6 -3 12 -11 12 -16 0 -29 27 -20 42 8 13 -35 58 -55 58
-14 0 -14 1 -1 10 8 5 18 10 22 10 15 0 78 -63 78 -78 0 -13 -3 -12 -15 4 -14
18 -15 17 -4 -8 12 -28 29 -29 29 -2 0 8 4 14 8 14 5 0 7 -16 6 -35 -2 -19 0
-34 4 -34 29 5 44 -2 38 -18 -5 -13 -1 -11 18 6 22 21 28 22 57 12 47 -16 65
-15 49 4 -7 8 -26 15 -42 15 -17 0 -27 4 -23 10 11 18 41 11 65 -15 13 -14 19
-25 14 -25 -5 0 -1 -5 9 -11 9 -5 17 -17 17 -24 0 -8 5 -14 12 -12 6 1 14 -7
16 -18 2 -11 14 -51 27 -88 16 -49 24 -63 29 -50 10 26 28 153 27 191 -2 48
-44 124 -100 179 -40 40 -61 51 -116 66 -38 9 -69 16 -70 15 -2 -2 -6 -14 -10
-28 l-8 -25 22 20 22 19 -10 -28 c-6 -15 -15 -36 -21 -46 -7 -13 -6 -21 4 -29
11 -9 18 -7 30 10 13 20 14 24 0 33 -13 10 -13 13 1 31 15 20 15 20 8 0 -6
-20 -6 -20 15 -1 22 19 22 19 22 -4 0 -19 3 -21 12 -12 18 18 23 15 24 -13 2
-25 -21 -36 -28 -13 -6 17 -28 0 -28 -21 0 -10 -10 -25 -22 -34 -19 -12 -21
-17 -10 -29 11 -11 12 -10 6 7 -7 17 -5 18 7 8 18 -14 39 -3 43 23 2 12 14 21
34 25 45 9 40 -4 -20 -47 -53 -38 -88 -52 -88 -34 0 12 -39 49 -65 61 -17 8
-16 9 7 6 15 -2 25 0 22 4 -3 5 -13 9 -24 9 -15 0 -17 5 -10 36 8 35 8 35 -12
17 -20 -18 -21 -18 -10 3 6 12 22 28 36 37 l25 17 -15 -35 c-8 -19 -14 -41
-14 -50 0 -22 28 -18 41 7 10 18 9 20 -5 15 -14 -5 -16 -3 -12 13 3 11 9 29
12 40 4 16 1 20 -20 20 -14 0 -28 -4 -31 -10z m252 -142 c-3 -11 0 -18 8 -18
8 0 21 -7 29 -16 9 -8 20 -13 26 -9 5 3 7 0 4 -8 -3 -8 -1 -18 5 -22 14 -8 14
-25 1 -25 -5 0 -10 7 -10 15 0 8 -5 15 -10 15 -5 0 -9 -3 -9 -7 5 -32 -11 -40
-37 -18 -8 7 -5 14 10 28 l21 18 -24 -11 c-16 -9 -21 -9 -17 -1 4 6 1 14 -7
17 -10 4 -15 18 -14 44 2 30 5 36 15 27 7 -6 11 -19 9 -29z m-40 -18 c1 -11
-4 -20 -10 -21 -7 0 -23 -2 -37 -5 -25 -4 -25 -3 5 21 36 30 40 31 42 5z m123
-120 c0 -15 -9 -38 -20 -51 -22 -27 -27 -20 -8 11 9 14 10 22 1 31 -6 6 -9 19
-6 29 7 28 33 12 33 -20z"/>
<path d="M1067 2403 c-15 -2 -32 -14 -38 -25 -11 -20 -10 -20 12 -4 38 26 58
19 25 -9 -23 -20 -29 -33 -28 -62 2 -38 42 -93 70 -93 18 0 10 21 -13 34 -32
18 -45 40 -39 66 6 29 42 70 60 70 16 0 24 -36 11 -49 -16 -16 -30 -13 -23 4
6 16 -14 16 -26 0 -14 -18 -8 -22 33 -23 33 -2 40 1 35 14 -3 8 -2 12 4 9 5
-3 14 4 20 15 7 13 7 20 0 20 -5 0 -10 -4 -10 -10 0 -5 -4 -10 -10 -10 -12 0
-9 22 5 32 6 4 -6 8 -25 8 -26 0 -31 3 -20 10 17 11 12 11 -43 3z"/>
<path d="M981 2345 c-12 -14 -19 -30 -16 -35 3 -5 -4 -7 -16 -5 -13 3 -29 -5
-45 -22 -13 -14 -24 -22 -24 -18 0 4 -9 -4 -21 -19 -18 -23 -19 -29 -8 -43 12
-14 11 -15 -9 -9 -13 4 -22 3 -22 -3 0 -5 20 -9 46 -8 l45 2 -28 22 c-15 12
-24 26 -20 30 5 4 12 2 16 -6 6 -9 10 -7 14 8 7 29 30 18 53 -27 20 -39 32
-52 49 -52 6 1 2 7 -7 14 -10 7 -19 23 -21 35 -2 12 -9 27 -15 33 -7 7 -12 18
-12 26 0 7 -5 10 -12 6 -7 -4 -8 -3 -4 5 6 9 14 8 32 -3 31 -21 31 -21 32 19
1 19 6 44 12 55 14 27 8 25 -19 -5z"/>
<path d="M1006 2332 c-3 -5 -3 -27 0 -48 3 -21 6 -44 7 -51 0 -7 4 -10 8 -8 8
6 5 102 -3 111 -3 3 -9 1 -12 -4z"/>
<path d="M1148 2271 c19 -18 30 -36 26 -43 -4 -7 -3 -8 4 -4 26 16 3 54 -43
70 -14 5 -10 -3 13 -23z"/>
<path d="M805 2113 c1 -32 8 -59 14 -61 6 -2 11 -11 11 -20 0 -10 8 -33 19
-52 10 -19 26 -61 36 -92 17 -53 20 -56 56 -62 26 -4 39 -11 39 -22 0 -8 4
-13 9 -9 11 6 34 -93 35 -151 1 -37 3 -40 19 -30 9 6 17 18 17 26 0 13 1 13
10 0 8 -12 10 -10 10 8 0 13 -4 21 -9 18 -13 -8 -52 122 -45 149 5 20 2 22
-23 19 -27 -4 -27 -4 -5 7 12 7 23 19 23 28 4 53 9 65 35 92 15 16 24 29 20
29 -5 0 -3 6 3 13 8 11 7 14 -7 14 -16 0 -49 -35 -45 -48 1 -4 -3 -6 -10 -5
-7 0 -14 -3 -15 -9 -2 -5 -8 -19 -14 -30 -9 -19 -9 -19 6 -1 9 10 13 23 9 29
-3 6 -1 7 5 3 8 -5 4 -23 -15 -59 -14 -29 -28 -46 -30 -39 -3 6 -11 12 -18 12
-19 0 -38 38 -37 74 1 22 -2 26 -8 16 -6 -8 -10 -12 -11 -7 -5 26 -4 34 10 52
16 20 16 20 -6 1 -21 -17 -28 -15 -24 7 0 4 -3 7 -8 7 -13 0 -20 49 -8 57 6 4
7 1 2 -7 -6 -9 -4 -11 4 -6 13 9 6 21 -12 21 -7 0 -13 9 -15 20 -2 15 -1 17 6
7 5 -8 18 -12 27 -10 15 2 11 8 -18 28 -24 16 -32 27 -24 32 8 5 7 8 -5 8 -14
0 -16 -9 -13 -57z"/>
<path d="M853 2158 c7 -4 26 -8 42 -9 27 -2 26 -3 -10 -10 -35 -7 -33 -7 19
-5 58 3 58 3 35 -15 -24 -18 -24 -18 13 -5 52 17 54 23 13 30 -19 4 -33 10
-31 14 3 5 -17 8 -44 7 -26 0 -43 -3 -37 -7z"/>
<path d="M1023 2136 c-4 -5 -1 -6 5 -2 7 4 12 3 12 -2 0 -5 -10 -13 -22 -16
-22 -7 -22 -7 -3 -16 16 -7 16 -9 4 -9 -9 -1 -19 -11 -22 -23 -6 -22 -6 -22 8
-4 19 26 19 13 0 -25 -16 -29 -15 -29 5 -17 11 7 24 24 27 38 3 14 14 39 24
56 l17 32 -25 -2 c-14 0 -27 -5 -30 -10z"/>
<path d="M1436 1951 c-23 -24 -26 -33 -17 -48 9 -15 10 -15 11 -2 0 24 33 49
74 56 48 7 46 23 -2 23 -29 0 -45 -7 -66 -29z"/>
<path d="M1223 1950 c-13 -5 -23 -11 -23 -13 0 -8 105 5 115 14 12 12 -63 11
-92 -1z"/>
<path d="M1158 1921 c-16 -14 -28 -33 -28 -41 0 -9 12 -1 30 19 38 41 35 58
-2 22z"/>
<path d="M1483 1940 c-29 -12 -53 -59 -43 -85 4 -11 6 -23 3 -27 -2 -4 6 -12
17 -18 11 -6 18 -15 16 -19 -3 -5 4 -17 17 -27 14 -12 17 -13 9 -3 -11 14 -7
16 37 11 43 -4 53 -1 75 21 20 20 26 36 26 69 0 67 -20 88 -83 87 -29 0 -62
-4 -74 -9z m87 -44 c4 -4 11 1 15 13 6 21 35 30 35 11 0 -5 -7 -10 -15 -10 -8
0 -15 -4 -15 -10 0 -5 8 -10 18 -10 14 0 14 -2 3 -9 -9 -6 -12 -19 -8 -40 7
-33 -8 -50 -26 -32 -17 17 -47 13 -47 -6 0 -15 -2 -16 -10 -3 -6 10 -2 24 15
46 l23 31 -28 0 c-16 0 -27 -4 -25 -8 3 -4 2 -20 -1 -37 l-6 -29 -22 21 -22
21 21 22 c11 13 25 23 32 23 7 0 10 7 6 18 -5 14 -3 13 10 -3 9 -11 17 -15 18
-10 1 6 3 15 4 20 2 6 4 15 5 20 1 6 4 1 7 -10 3 -11 9 -24 13 -29z"/>
<path d="M1227 1921 c-46 -10 -55 -18 -59 -56 -2 -25 0 -29 17 -26 20 3 20 3
1 -18 -20 -22 -15 -37 23 -68 20 -18 82 -16 107 2 12 8 25 11 29 7 5 -4 5 -2
2 4 -3 6 1 29 8 52 14 40 9 82 -12 95 -17 11 -80 15 -116 8z m103 -62 c0 -13
-30 -60 -51 -81 -14 -14 -19 -15 -28 -4 -8 10 -7 16 3 25 19 16 9 41 -15 41
-25 0 -24 19 2 28 25 10 89 3 89 -9z m-75 -39 c7 -11 -49 -42 -59 -33 -13 14
-5 32 17 36 12 2 25 5 29 6 4 0 9 -3 13 -9z"/>
<path d="M900 1776 c0 -14 5 -28 10 -31 6 -3 10 3 10 14 0 28 15 34 34 12 11
-13 14 -21 7 -26 -16 -9 -13 -41 4 -55 13 -11 14 -10 9 3 -3 9 -1 24 4 34 14
25 -21 73 -54 73 -19 0 -24 -5 -24 -24z"/>
<path d="M870 1740 c0 -29 83 -160 95 -148 2 2 -9 20 -25 40 -17 20 -39 56
-50 80 -11 24 -20 36 -20 28z"/>
<path d="M1326 1741 c-4 -5 -3 -17 0 -26 6 -13 14 -15 43 -10 20 4 41 8 48 8
7 0 10 4 7 9 -3 5 -25 8 -47 6 -30 -2 -41 1 -39 10 2 14 -4 16 -12 3z"/>
<path d="M1456 1715 c-24 -36 -21 -56 7 -46 13 5 21 15 19 26 -2 9 2 23 9 31
9 11 8 14 -4 14 -8 0 -22 -11 -31 -25z"/>
<path d="M1391 1681 c-37 -10 -36 -26 1 -25 22 1 34 6 36 17 4 18 1 19 -37 8z"/>
<path d="M1510 1663 c0 -11 -7 -19 -17 -19 -40 -2 -143 -23 -162 -34 -23 -12
-28 -1 -8 19 10 10 8 11 -8 5 -28 -11 -40 -26 -42 -51 -2 -24 12 -32 19 -12 2
7 27 11 63 11 50 -1 80 4 135 24 3 1 15 5 28 9 25 8 29 37 7 55 -12 10 -15 9
-15 -7z m-40 -42 c0 -17 -80 -33 -80 -16 0 5 14 11 32 13 18 2 35 6 37 8 7 6
11 5 11 -5z"/>
<path d="M1610 1678 c-2 -5 -4 -11 -5 -15 -2 -5 -6 -18 -10 -30 -4 -13 -12
-23 -17 -23 -6 0 -7 -16 -3 -37 4 -28 1 -44 -10 -58 -16 -20 -16 -20 -12 0 3
11 8 28 12 38 4 10 3 17 -4 17 -5 0 -15 -19 -22 -42 -13 -52 -33 -75 -78 -94
-43 -18 -44 -18 -36 7 5 16 3 20 -6 16 -8 -2 -13 -9 -12 -14 1 -6 -9 -9 -22
-7 -14 1 -25 -2 -25 -7 0 -5 -7 -9 -15 -9 -8 0 -15 5 -15 11 0 6 -6 9 -13 6
-7 -3 -21 1 -32 9 -24 18 -35 18 -35 -1 0 -21 105 -68 160 -70 56 -3 153 68
177 130 17 43 36 151 30 167 -3 7 -6 10 -7 6z"/>
<path d="M1057 1590 c7 -25 23 -36 23 -16 0 10 6 13 18 9 14 -5 15 -3 5 7 -7
8 -21 15 -32 17 -15 2 -18 -2 -14 -17z"/>
<path d="M1464 1559 c-4 -8 -26 -10 -63 -6 -36 4 -50 3 -41 -3 13 -8 13 -10 1
-10 -28 0 4 -19 42 -25 42 -7 87 14 87 40 0 18 -16 20 -26 4z"/>
<path d="M1100 1501 c0 -14 26 -31 36 -23 4 4 2 -1 -5 -11 -12 -15 -12 -17 4
-11 12 5 16 4 11 -4 -6 -11 34 -34 84 -47 22 -6 22 -4 -7 17 -18 12 -31 29
-28 35 2 7 -6 15 -20 19 -13 3 -29 12 -36 20 -13 15 -39 19 -39 5z"/>
<path d="M1614 1446 c40 -33 31 -50 -77 -160 -112 -114 -195 -160 -288 -161
-46 0 -62 4 -82 23 -26 25 -50 91 -41 115 11 31 -15 26 -62 -12 -27 -21 -89
-60 -138 -87 -87 -48 -172 -113 -150 -114 7 0 14 7 18 15 7 20 46 19 63 -2 12
-17 13 -16 11 7 -3 21 5 29 52 52 30 16 67 39 82 53 l27 25 3 -22 c3 -21 6
-19 28 17 l24 40 6 -48 c3 -27 14 -55 24 -65 18 -16 18 -16 2 8 -9 13 -16 43
-16 65 l1 40 13 -36 c15 -43 50 -91 60 -82 3 3 6 1 6 -6 0 -7 7 -11 15 -8 8 4
17 2 21 -4 3 -6 12 -8 19 -5 7 2 17 0 23 -6 13 -13 75 9 184 63 32 16 37 17
42 3 4 -10 2 -13 -6 -8 -7 4 -8 3 -4 -5 4 -6 3 -18 -4 -26 -7 -9 -8 -15 0 -20
5 -3 13 2 16 12 23 66 50 111 106 176 87 102 98 116 98 126 0 16 84 -31 109
-60 29 -35 49 -38 27 -4 l-16 24 66 -25 c43 -16 64 -20 62 -12 -3 7 -49 27
-104 44 -54 17 -124 42 -154 56 -84 39 -100 42 -66 14z"/>
<path d="M1505 1367 c-38 -39 -56 -61 -39 -49 30 20 114 107 114 117 0 7 1 8
-75 -68z"/>
<path d="M1987 1316 c-4 -9 4 -16 24 -20 36 -6 46 -10 84 -25 17 -7 36 -14 43
-15 8 -1 17 -7 20 -12 15 -21 82 -65 91 -60 8 6 81 -56 81 -69 0 -4 -45 -59
-99 -124 -84 -100 -131 -171 -131 -200 0 -9 48 -6 57 3 4 4 0 12 -10 17 -9 6
-17 15 -17 21 0 12 138 198 146 198 3 0 -2 -13 -11 -29 -8 -17 -17 -46 -20
-66 -2 -19 -7 -40 -10 -45 -3 -5 -1 -11 4 -14 4 -3 14 16 21 42 7 26 23 66 36
89 17 30 20 43 11 46 -8 3 -2 13 16 30 18 17 33 24 45 20 24 -9 -91 85 -163
133 -33 22 -93 53 -133 67 -86 32 -78 31 -85 13z"/>
<path d="M1889 1202 c-1 -7 -2 -18 -3 -24 -1 -7 1 -21 6 -30 14 -29 28 -117
35 -213 3 -49 12 -103 20 -118 19 -37 25 -30 13 14 -6 19 -13 66 -16 104 -5
69 -41 265 -50 274 -2 2 -5 -1 -5 -7z"/>
<path d="M2000 1116 c-5 -15 -12 -53 -15 -84 -4 -53 -4 -54 5 -17 6 22 11 45
13 52 7 30 14 19 16 -30 1 -28 6 -83 12 -120 11 -80 -1 -120 -22 -74 -13 29
-29 36 -29 13 0 -8 11 -23 25 -34 30 -24 32 -36 5 -27 -26 8 -26 -7 1 -31 17
-16 22 -16 29 -4 11 18 12 104 1 253 -8 114 -22 151 -41 103z"/>
<path d="M2350 1086 c0 -11 43 -76 50 -76 5 0 11 6 14 13 3 6 3 0 0 -15 -4
-17 -2 -28 5 -28 6 0 8 -6 5 -13 -3 -8 2 -20 10 -27 9 -7 14 -16 11 -20 -2 -4
4 -15 15 -25 11 -10 20 -23 20 -29 0 -6 9 -22 20 -36 11 -14 20 -33 20 -42 0
-10 5 -18 11 -18 5 0 7 -4 4 -10 -3 -5 2 -10 12 -10 15 0 16 -2 3 -10 -10 -6
-11 -10 -3 -10 7 0 19 -15 27 -34 8 -18 19 -37 25 -40 6 -4 9 -11 6 -16 -3 -5
3 -15 15 -22 11 -7 20 -20 20 -29 0 -8 3 -19 8 -23 4 -4 7 -11 7 -14 0 -6 40
-80 66 -122 89 -146 98 -165 86 -172 -8 -5 -6 -8 6 -8 28 0 11 -18 -44 -45
-27 -14 -49 -27 -49 -30 0 -7 74 26 91 41 20 18 29 18 29 0 0 -8 7 -16 15 -20
21 -8 19 7 -5 37 -11 14 -20 35 -20 46 0 11 -8 30 -17 41 -10 11 -39 58 -64
103 -25 45 -58 105 -74 132 -15 28 -67 121 -116 207 -49 86 -89 160 -89 164 0
4 -10 23 -22 43 -13 20 -23 43 -23 51 0 8 -6 16 -12 16 -7 1 -18 2 -24 3 -5 0
-7 6 -4 11 4 6 11 7 17 4 7 -4 8 -2 4 5 -4 6 -12 9 -17 6 -5 -4 -12 1 -15 9
-5 14 -24 23 -24 12z"/>
<path d="M733 1008 c-12 -18 -20 -34 -16 -37 3 -4 8 0 11 8 2 7 13 22 23 32
20 20 24 29 12 29 -5 0 -18 -15 -30 -32z"/>
<path d="M865 1021 c-8 -26 -8 -26 21 -35 16 -5 23 -2 27 14 3 14 1 20 -6 17
-7 -2 -17 3 -23 11 -10 14 -12 13 -19 -7z"/>
<path d="M1680 1011 c12 -24 29 -35 38 -26 4 4 -1 12 -10 19 -10 7 -15 16 -11
19 3 4 -1 7 -11 7 -13 0 -15 -4 -6 -19z"/>
<path d="M1374 956 c-28 -31 -34 -56 -13 -56 9 0 53 80 46 86 -2 2 -17 -11
-33 -30z"/>
<path d="M739 973 c-1 -4 -4 -21 -7 -38 -12 -59 -8 -228 6 -233 6 -2 12 -17
12 -32 0 -16 7 -50 16 -76 9 -25 17 -55 19 -64 2 -10 11 -31 20 -47 10 -17 14
-21 11 -8 -32 128 -66 333 -62 363 11 75 10 136 -2 140 -7 2 -13 0 -13 -5z"/>
<path d="M1715 970 c-9 -14 48 -66 68 -62 13 3 9 11 -18 38 -38 37 -41 39 -50
24z"/>
<path d="M686 938 c-11 -17 -12 -33 -6 -58 l8 -35 1 46 c1 25 6 50 13 57 7 7
9 12 5 12 -3 0 -13 -10 -21 -22z"/>
<path d="M1000 932 c0 -19 47 -59 57 -48 3 3 -9 19 -26 36 -27 27 -31 29 -31
12z"/>
<path d="M1164 869 c-19 -19 -22 -19 -37 -5 -11 11 -18 13 -23 5 -4 -8 -9 -7
-15 2 -7 12 -9 12 -9 1 0 -8 9 -16 20 -19 11 -3 20 -9 20 -14 0 -16 26 -10 54
12 25 20 34 39 18 39 -4 0 -17 -9 -28 -21z"/>
<path d="M1829 884 c-1 -5 -1 -12 0 -16 0 -5 -3 -8 -9 -8 -5 0 -10 -7 -10 -15
0 -41 -61 -33 -104 14 -21 23 -50 29 -43 9 2 -7 9 -13 15 -13 5 0 14 -3 18 -7
4 -5 2 -8 -5 -8 -7 0 -9 -4 -6 -10 8 -13 -6 -13 -38 -1 -14 6 -28 7 -31 4 -10
-11 -166 -12 -166 -2 0 5 -9 1 -21 -10 -12 -11 -27 -17 -34 -15 -7 3 -16 1
-20 -5 -3 -7 0 -8 9 -5 24 9 20 -23 -4 -36 -23 -12 -28 -42 -5 -34 10 4 15 0
15 -10 0 -9 -7 -19 -15 -22 -8 -4 -15 -15 -15 -25 0 -17 3 -18 20 -9 17 9 20
8 20 -7 0 -11 -12 -23 -30 -30 l-30 -11 0 84 c0 49 4 84 10 84 6 0 9 3 8 8 0
4 2 15 7 25 13 31 -6 33 -29 4 -22 -27 -23 -27 -52 -12 -27 14 -29 14 -32 -4
-2 -13 -9 -17 -23 -14 -10 3 -19 0 -19 -6 0 -7 -24 -9 -70 -7 -38 2 -71 0 -72
-3 -2 -4 -22 -14 -45 -23 -30 -11 -43 -13 -47 -4 -3 7 -5 7 -5 -1 -1 -7 -10
-13 -22 -13 -11 0 -17 5 -14 10 4 6 -10 2 -30 -7 -35 -17 -36 -18 -14 -24 20
-4 24 -11 23 -42 -1 -20 2 -37 7 -37 14 0 20 -39 9 -59 -6 -11 -25 -24 -43
-29 -20 -6 -31 -14 -28 -23 2 -8 4 -24 5 -37 1 -19 21 -34 21 -14 0 4 6 21 13
39 16 36 50 50 67 26 9 -11 14 -13 19 -5 4 7 4 12 -1 12 -4 0 -1 5 7 10 13 8
13 10 -2 10 -24 0 -34 24 -42 98 -6 52 -5 62 9 62 11 0 15 -11 15 -47 0 -98
37 -97 42 1 2 36 8 61 16 64 18 5 15 -116 -3 -148 -20 -35 -19 -36 23 -36 23
1 46 8 56 19 14 14 21 15 32 6 8 -6 25 -8 39 -5 34 9 51 -2 30 -18 -15 -10
-14 -12 4 -12 11 0 18 3 15 7 -2 4 4 13 13 20 10 8 14 9 10 2 -13 -21 9 -22
27 -2 10 12 20 18 24 14 3 -3 0 -10 -8 -15 -11 -7 -12 -12 -3 -21 8 -8 13 -6
17 7 7 23 82 68 90 55 4 -5 0 -11 -6 -14 -7 -3 -3 -4 9 -4 12 1 19 5 16 10 -3
5 0 7 8 5 8 -3 29 -1 47 4 38 11 83 1 61 -13 -8 -5 -9 -9 -3 -9 6 0 17 7 24
15 8 9 22 12 41 8 22 -4 29 -2 29 11 0 18 17 20 54 6 17 -6 35 -6 52 0 22 9
25 8 22 -7 -6 -28 34 -54 68 -44 27 7 28 8 6 13 -21 6 -32 38 -13 38 11 0 33
59 25 71 -3 5 -1 9 3 9 5 0 10 10 10 22 1 13 7 24 13 26 5 2 8 8 5 12 -3 5 -1
11 4 14 5 4 19 -11 32 -33 12 -21 32 -44 46 -50 31 -14 36 -14 26 2 -4 6 -8
18 -9 26 -2 7 -12 20 -23 28 -11 7 -32 33 -46 57 -27 46 -64 85 -66 70z m31
-65 c0 -4 -13 -31 -29 -58 -24 -39 -29 -58 -24 -86 5 -33 4 -35 -21 -35 -23 0
-26 4 -26 38 0 21 -11 56 -25 81 -30 52 -31 61 -6 61 11 0 23 -12 31 -30 7
-16 16 -30 20 -30 4 0 13 14 20 30 7 17 19 30 27 30 8 0 11 4 8 10 -3 6 1 7 9
4 9 -3 16 -10 16 -15z m-161 -41 c14 -24 14 -28 -2 -46 -17 -19 -17 -21 4 -56
l21 -36 -24 0 c-17 0 -29 10 -42 35 -25 46 -44 45 -48 -2 -2 -20 -9 -38 -15
-41 -10 -3 -13 19 -13 88 l0 91 52 -3 c45 -3 55 -7 67 -30z m-157 5 c22 -20
23 -46 3 -67 -14 -14 -14 -18 0 -45 19 -38 19 -41 -5 -41 -13 0 -26 12 -37 35
-9 19 -23 35 -30 35 -8 0 -13 -13 -13 -35 0 -28 -4 -35 -20 -35 -18 0 -20 7
-20 85 l0 85 52 0 c34 0 58 -6 70 -17z m-232 -33 c7 -14 8 -26 1 -39 -8 -14
-7 -20 4 -25 16 -6 20 -43 6 -65 -9 -13 -100 -35 -109 -26 -3 3 -7 41 -10 84
-4 77 -4 79 19 84 55 10 78 7 89 -13z m-142 -12 c15 -15 15 -43 0 -67 -9 -14
-8 -23 5 -42 21 -29 21 -35 2 -43 -11 -4 -22 6 -36 29 -28 47 -52 47 -43 0 5
-31 4 -35 -15 -35 -20 0 -21 5 -21 85 l0 85 48 0 c26 0 53 -5 60 -12z"/>
<path d="M1610 760 c0 -17 5 -21 28 -18 16 2 27 9 27 18 0 9 -11 16 -27 18
-23 3 -28 -1 -28 -18z"/>
<path d="M1460 745 c0 -10 10 -15 30 -15 20 0 30 5 30 15 0 10 -10 15 -30 15
-20 0 -30 -5 -30 -15z"/>
<path d="M1248 733 c-10 -3 -18 -9 -18 -14 0 -15 30 -23 43 -10 14 14 -2 29
-25 24z"/>
<path d="M1240 650 c0 -17 5 -21 28 -18 16 2 27 9 27 18 0 9 -11 16 -27 18
-23 3 -28 -1 -28 -18z"/>
<path d="M1097 714 c-17 -18 -6 -35 21 -32 16 2 27 9 27 18 0 16 -36 26 -48
14z"/>
<path d="M898 858 c-9 -13 -25 -34 -37 -47 -11 -13 -21 -28 -21 -33 0 -6 -9
-23 -21 -39 -18 -26 -19 -35 -10 -98 14 -104 31 -125 24 -30 -6 83 -11 70 78
219 22 35 9 61 -13 28z"/>
<path d="M616 795 c-3 -16 -10 -136 -16 -265 -7 -168 -15 -263 -30 -334 -23
-107 -22 -141 2 -86 36 83 45 170 48 490 1 89 17 15 29 -133 7 -81 18 -167 25
-192 15 -49 85 -179 93 -172 2 3 -17 48 -42 100 -50 100 -64 168 -64 307 -1
49 2 61 10 50 9 -12 10 -11 4 5 -3 11 -12 62 -20 115 -7 52 -18 106 -23 120
l-9 25 -7 -30z"/>
<path d="M2025 691 c8 -23 19 -49 25 -59 10 -15 11 -15 4 3 -4 11 -9 32 -12
47 -2 15 -10 33 -18 39 -12 9 -12 4 1 -30z"/>
<path d="M1855 690 c-3 -6 -2 -10 2 -10 5 0 21 -10 37 -22 35 -29 128 -79 135
-73 2 3 -4 14 -14 25 -26 29 -153 92 -160 80z"/>
<path d="M860 670 c-12 -7 -12 -12 -2 -22 9 -9 15 -9 24 0 16 16 -2 34 -22 22z"/>
<path d="M860 589 c0 -25 33 -22 38 4 2 12 -3 17 -17 17 -15 0 -21 -6 -21 -21z"/>
<path d="M1380 565 c-7 -8 -17 -12 -22 -9 -6 4 -13 1 -17 -5 -4 -6 -32 -13
-62 -16 -30 -3 -71 -7 -91 -9 -21 -3 -40 0 -44 5 -4 6 -11 6 -20 -2 -8 -6 -14
-8 -14 -4 0 4 -6 3 -13 -3 -7 -6 -32 -14 -56 -18 -33 -5 -45 -12 -52 -32 -6
-17 -6 -29 1 -36 7 -7 10 1 11 25 1 21 3 27 6 14 3 -11 12 -24 21 -29 14 -8
14 -10 -3 -17 -18 -7 -18 -8 3 -8 13 -1 21 -5 18 -9 -3 -5 8 -6 25 -4 16 2 29
8 29 12 0 4 28 8 61 9 81 2 99 13 99 58 0 30 2 34 15 23 10 -9 15 -9 15 -1 0
6 5 11 10 11 6 0 10 -13 10 -30 0 -34 -7 -38 -26 -12 -12 16 -13 15 -11 -5 1
-13 5 -23 9 -23 4 0 8 -8 8 -17 1 -14 4 -12 15 7 7 14 16 23 19 21 4 -2 17 0
29 4 25 8 57 11 177 15 47 1 77 4 68 7 -10 2 -18 14 -19 26 -1 20 -2 20 -8 -3
-7 -24 -7 -24 -19 -5 -9 16 -11 17 -12 3 0 -14 -12 -16 -90 -15 -58 0 -95 -4
-102 -11 -7 -7 -15 -12 -19 -12 -8 0 1 52 12 65 11 14 59 17 59 4 0 -5 -4 -7
-10 -4 -5 3 -10 1 -10 -4 0 -6 7 -11 15 -11 8 0 15 7 15 15 0 8 5 15 10 15 6
0 10 -11 10 -25 0 -33 27 -33 42 0 14 30 30 28 39 -6 7 -24 7 -24 8 4 1 27 31
41 31 15 0 -9 3 -10 8 -2 12 18 50 23 69 9 15 -12 16 -17 5 -34 -7 -12 -8 -21
-2 -21 5 0 13 11 16 26 7 26 -15 52 -46 54 -8 1 -34 3 -58 6 -27 2 -41 0 -37
-6 3 -5 -3 -10 -14 -10 -11 0 -23 -5 -27 -11 -5 -8 -9 -8 -14 1 -4 6 -13 12
-21 13 -8 2 -19 6 -25 10 -7 4 -17 0 -24 -8z m-193 -71 c5 -15 7 -15 15 0 15
27 48 20 48 -9 0 -28 -25 -44 -42 -27 -8 8 -15 7 -25 -4 -23 -23 -33 -16 -33
21 0 37 25 50 37 19z m-112 -30 c0 -32 -21 -39 -38 -12 -8 12 -7 21 3 32 19
24 35 14 35 -20z m36 24 c0 -10 2 -10 6 0 9 23 23 12 23 -20 0 -31 0 -31 -20
-13 -18 17 -20 17 -14 2 3 -10 1 -17 -5 -17 -6 0 -11 14 -11 30 0 28 19 44 21
18z"/>
<path d="M1874 532 c-13 -7 -24 -16 -24 -21 0 -16 13 -21 27 -9 7 6 39 16 71
23 l57 12 -53 4 c-32 2 -63 -1 -78 -9z"/>
<path d="M2374 479 c-49 -39 -49 -39 -38 -39 6 0 27 16 48 35 48 43 42 45 -10
4z"/>
<path d="M1651 481 c-11 -7 -11 -9 0 -14 8 -3 4 -6 -8 -6 -13 -1 -23 -5 -23
-11 0 -5 -6 -10 -14 -10 -8 0 -17 -4 -21 -9 -7 -12 36 -5 44 7 13 19 37 18 59
-2 17 -15 22 -17 17 -4 -6 14 0 16 37 11 32 -3 39 -2 28 6 -8 6 -26 11 -40 11
-18 0 -21 3 -12 9 10 6 8 10 -10 14 -31 9 -40 8 -57 -2z"/>
<path d="M963 390 c-11 -16 -10 -18 1 -14 9 3 17 -3 22 -18 l7 -23 9 24 c5 15
4 28 -3 37 -15 19 -22 18 -36 -6z"/>
<path d="M1244 398 c-5 -7 -3 -8 7 -3 8 5 5 -2 -5 -14 -20 -22 -20 -22 0 -14
25 9 45 29 37 37 -10 10 -31 7 -39 -6z"/>
<path d="M840 386 c0 -5 20 -41 44 -80 67 -109 74 -126 87 -219 7 -48 16 -87
22 -87 5 0 7 15 4 33 -3 17 -9 55 -13 82 -4 28 -21 75 -38 105 -45 82 -106
176 -106 166z"/>
<path d="M2020 360 c-8 -5 -11 -10 -6 -10 5 0 3 -7 -5 -16 -10 -13 -6 -12 24
3 20 10 37 21 37 26 0 10 -32 9 -50 -3z"/>
<path d="M1896 275 c-31 -15 -74 -26 -120 -29 -144 -11 -182 -18 -208 -37 -15
-10 -31 -19 -36 -19 -4 0 -14 -6 -20 -12 -14 -14 -17 -15 -63 -17 -27 -1 -30
-3 -19 -16 23 -28 68 -15 155 45 35 25 52 29 143 34 88 5 113 10 168 36 59 28
76 41 57 40 -5 0 -30 -11 -57 -25z"/>
<path d="M1352 278 c-17 -17 -15 -28 4 -28 8 0 25 -5 37 -12 12 -7 31 -13 42
-14 11 -2 5 5 -15 14 -19 9 -35 23 -35 31 0 19 -18 24 -33 9z"/>
<path d="M2035 206 c-32 -25 -92 -39 -98 -22 -2 7 -18 6 -48 -3 -24 -7 -56
-14 -71 -15 -29 -2 -45 -12 -35 -22 11 -11 97 -17 109 -7 7 5 31 10 53 12 58
3 89 18 109 51 21 36 19 36 -19 6z"/>
<path d="M2310 224 c-21 -6 -45 -44 -28 -44 14 0 78 37 78 45 0 6 -27 5 -50
-1z"/>
<path d="M2100 217 c0 -4 10 -27 21 -50 43 -83 43 -111 3 -151 -9 -10 -11 -16
-4 -16 34 0 70 89 45 110 -7 6 -15 23 -19 38 -5 26 -45 86 -46 69z"/>
<path d="M2791 145 c-35 -19 -71 -41 -80 -48 -18 -16 -107 -62 -161 -83 -32
-13 -32 -14 -5 -8 17 3 56 17 88 31 31 14 59 24 60 22 2 -2 8 -15 14 -29 12
-25 12 -25 12 8 1 39 24 62 106 108 33 18 53 33 45 33 -8 1 -44 -15 -79 -34z"/>
<path d="M2280 135 c0 -8 37 -24 71 -30 19 -3 47 -13 63 -21 16 -7 36 -14 44
-14 29 0 -29 39 -67 45 -20 3 -50 10 -67 15 -34 11 -44 12 -44 5z"/>
<path d="M2538 127 c-15 -6 -30 -17 -32 -24 -8 -19 7 -16 36 7 14 10 29 16 33
12 5 -4 5 -1 1 6 -4 6 -8 12 -9 11 -1 -1 -14 -6 -29 -12z"/>
<path d="M1755 106 c-35 -20 -75 -70 -63 -77 7 -4 17 -1 23 7 6 8 21 20 34 27
30 15 57 54 38 54 -7 0 -21 -5 -32 -11z"/>
<path d="M1210 95 c0 -10 49 -83 60 -90 6 -4 14 -4 18 0 3 3 0 10 -8 15 -8 5
-11 12 -7 16 4 4 -5 20 -20 36 -25 26 -43 36 -43 23z"/>
<path d="M2559 83 c-1 -5 -1 -11 -1 -14 1 -3 -9 -5 -21 -4 -12 1 -38 -4 -57
-11 -19 -7 -27 -13 -17 -13 10 -1 15 -5 12 -11 -10 -16 12 -12 29 5 8 8 25 15
38 15 13 1 34 8 48 16 l25 15 -28 -6 c-19 -4 -26 -2 -22 5 3 5 4 10 1 10 -3 0
-7 -3 -7 -7z"/>
<path d="M545 60 c-6 -10 63 -45 72 -37 5 6 -46 47 -58 47 -4 0 -11 -5 -14
-10z"/>
<path d="M243 3 c54 -2 139 -2 190 0 51 1 7 3 -98 3 -104 0 -146 -2 -92 -3z"/>
<path d="M2783 3 c26 -2 67 -2 90 0 23 2 2 3 -48 3 -49 0 -68 -1 -42 -3z"/>
</g>
</svg>
